<?xml version="1.0" encoding="utf-8"?>
<!-- Generator: Adobe Illustrator 21.0.0, SVG Export Plug-In . SVG Version: 6.00 Build 0)  -->
<svg version="1.1" id="Icon" xmlns="http://www.w3.org/2000/svg" xmlns:xlink="http://www.w3.org/1999/xlink" x="0px" y="0px"
	 viewBox="0 0 216 216" style="enable-background:new 0 0 216 216;" xml:space="preserve">
<style type="text/css">
	.st0{fill:#718F3E;}
</style>
<path class="st0" d="M151.2,180.3c-0.3-0.2-0.6-0.1-0.6-0.1c0,0,0,0,0,0c-10.2,1.4-20.9-1.9-28.7-9.7c-13.4-13.4-13.4-35,0-48.4
	s35-13.4,48.4,0c7.8,7.8,11.1,18.5,9.7,28.7c0,0-0.1,0.4,0.4,0.9c0,0,0,0,0,0l0.9,0.9l34.4-34.4c0.1-0.1,0.1-0.4,0-0.5l-44.3-44.3
	l0.4-0.4c0,0,0,0,0,0c0.5-0.5,0.9-0.4,0.9-0.4c0,0,0,0,0,0c10.2,1.4,20.9-1.9,28.7-9.7c13.4-13.4,13.4-35,0-48.4
	c-13.4-13.4-35-13.4-48.4,0c-7.8,7.8-11.1,18.5-9.7,28.7c0,0,0,0,0,0c0,0,0.1,0.2-0.1,0.6l-0.7,0.7L98.4,0.3c-0.1-0.1-0.4-0.1-0.5,0
	L0.3,97.9c-0.1,0.1-0.1,0.4,0,0.5l117.3,117.3c0.1,0.1,0.4,0.1,0.5,0l34.3-34.3L151.2,180.3z"/>
</svg>