<?xml version="1.0" encoding="utf-8"?>
<!-- Generator: Adobe Illustrator 20.1.0, SVG Export Plug-In . SVG Version: 6.00 Build 0)  -->
<svg version="1.1" id="IG_EN" xmlns="http://www.w3.org/2000/svg" xmlns:xlink="http://www.w3.org/1999/xlink" x="0px" y="0px"
	 viewBox="0 0 243.2 70.9" style="enable-background:new 0 0 243.2 70.9;" xml:space="preserve">
<style type="text/css">
	.st0{fill:#024371;stroke:#FFFFFF;stroke-width:1.8425;}
	.st1{fill:#FFFFFF;}
	.st2{fill:#024371;}
</style>
<g>
	<path class="st0" d="M75,62.9c-0.5,2.8-3.3,5.1-6,5.1H7.4c-2.8,0-4.6-2.3-4.1-5.1L14.2,7c0.5-2.8,3.3-5.1,6-5.1h61.6
		c2.8,0,4.6,2.3,4.1,5.1L75,62.9z"/>
	<g>
		<path class="st1" d="M73.8,19.4c-0.9-1.1-2.4-1.7-4-1.7H55l1.6-7.9H22.3l-2,9.6h7.1c0.6,0,1.6,0,2.2,0.6c0.1,0.1,0.4,0.4,0.4,1.2
			c0,0.3,0,0.8-0.1,1.3c0,0-4.7,22.7-4.9,24.1c-0.7,2.7-2.1,3.8-4.5,3.8h-6.4l-2,9.7h34.3L48,52h3.3c1.8,0,3.8-0.1,5.5-0.6
			c-0.1,0.3-0.1,0.6-0.1,0.6h2.2h10L73,32.2H55.2l-1.5,8c0,0,3.8,0,5.3,0c-0.1,0.5-0.2,1-0.3,1.4c-0.4,1.8-1.3,2.6-3,2.7
			c-0.2,0-6,0-6.1,0h-0.1c0-0.1,0-0.2,0.1-0.5c0,0,3.6-17.3,3.7-17.7c0.2-0.9,0.4-1.2,0.4-1.3c0.1,0,0.4,0,0.7,0h0.2H62
			c0,0,0,0,0.1,0l0,0v0.1c0,0.3-0.3,1.5-0.4,2.2l-0.5,2.1h12.2l0.3-1.3c0-0.1,0.7-3.4,1-5.1l0,0C75,21.7,74.7,20.4,73.8,19.4z"/>
		<path class="st2" d="M40.6,52c-2.3,0-5.2-0.9-4.3-5.2l5-24.2c1-3.7,3.1-5,6.1-5h5.7l1.3-6.2H23.7l-1.3,6.2h4.8
			c0.7,0,2.5,0,3.6,1.3c0.8,0.9,1,2.2,0.7,3.9l-5,24.2c-0.8,3-2.6,5-6.1,5h-5.1L14,58.3h30.7l1.3-6.4h-5.4V52z"/>
		<path class="st2" d="M40.5,50.3c-1.5,0-3-0.3-2.5-3.1L43,23c0.5-2.6,2.3-3.7,4.5-3.7h22.4c2.1,0,3.5,1.4,3.1,3.3
			c-0.3,1.7-1,5.1-1,5.1h-8.6c0,0,0.4-1.8,0.4-2.3c0.4-1.7-0.6-2.2-1.9-2.1h-7.4c-1.5,0-2.4-0.2-3,2.5l-3.7,17.8
			c-0.2,1.2-0.1,2.5,1.7,2.6h6.3c3-0.2,4.1-2.1,4.5-4c0.2-1.3,0.7-3.5,0.7-3.5h-5.3l0.9-4.6h14l-3.4,16.3h-8.6c0,0,0.4-1.9,0.6-2.7
			c-0.9,1.8-3.3,2.7-8.1,2.7L40.5,50.3L40.5,50.3z"/>
	</g>
</g>
</svg>
